# xmcd
#
# Track frame offsets:
#	150
#	22975
#	40232
#	66313
#	84213
#	108731
#	129391
#	146971
#	164465
#	183277
#	202039
#	225030
#	244654
#
# Disc length: 3526 seconds
#
# Revision: 0
# Processed by: cddbd v1.5.2PL0 Copyright (c) Steve Scherf et al.
# Submitted via: dBpowerAMP V4.0
#
DISCID=ab0dc40d
DTITLE=Tom Ovans - Party Girl
DYEAR=2007
DGENRE=Singer/Songwriter
TTITLE0=Party Girl
TTITLE1=Whiskey Jar
TTITLE2=Sugar Mama
TTITLE3=I'll Be Seeing You
TTITLE4=Hole In My Shoe
TTITLE5=Ain't No River
TTITLE6=Both Sides Of The Night
TTITLE7=Nobody Knows
TTITLE8=Ooh Baby
TTITLE9=I Keep On Hoping
TTITLE10=Rosalie
TTITLE11=Somebody Told Me
TTITLE12=West Texas Blues
EXTD=
EXTT0=
EXTT1=
EXTT2=
EXTT3=
EXTT4=
EXTT5=
EXTT6=
EXTT7=
EXTT8=
EXTT9=
EXTT10=
EXTT11=
EXTT12=
PLAYORDER=
